<svg width="128" height="128" viewBox="0 0 128 128" fill="none" xmlns="http://www.w3.org/2000/svg">
<path fill-rule="evenodd" clip-rule="evenodd" d="M98.194 0H30.708C21.439 0 18.666 7.096 18.666 11.563V120.011C18.666 125.354 21.352 126.931 22.824 127.544C24.297 128.157 28.195 128.595 30.967 125.792C30.967 125.792 63.021 88.037 63.54 87.424C64.06 86.811 64.32 86.811 64.666 86.811H84.938C93.601 86.811 95.247 80.767 96.2 77.088C96.98 74.022 105.903 30.222 108.675 16.382C110.755 5.694 108.07 0 98.194 0ZM94.209 18.484L91.177 33.288C90.831 34.865 89.358 36.266 87.538 36.266H61.202C58.256 36.266 55.831 38.719 55.831 41.697V44.938C55.831 47.916 58.257 50.369 61.202 50.369H83.466C85.545 50.369 87.278 52.384 86.845 54.574C86.412 56.852 84.073 68.415 83.813 69.641C83.64 70.955 82.254 72.619 80.175 72.619H61.982C58.17 72.707 57.391 72.794 55.138 75.597C52.886 78.4 32.96 103.629 32.96 103.629C32.787 103.892 32.614 103.804 32.614 103.541V17.781C32.614 15.766 34.26 14.102 36.252 14.102H90.916C92.823 14.103 94.729 16.031 94.209 18.484Z" fill="white"/>
</svg>
